# xmcd CD database file
#
# Track frame offsets:
#	150
#	37142
#	65730
#	95512
#
# Disc length: 1565 seconds
#
# Revision: 7
# Processed by: cddbd v1.5.2PL0 Copyright (c) Steve Scherf et al.
# Submitted via: CDex 1.83
#
DISCID=36061b04
DTITLE=My Dying Bride - Live at the Dynamo '95
DYEAR=1996
DGENRE=Doom Metal
TTITLE0=Your River
TTITLE1=A Sea To Suffer In
TTITLE2=Your Shameful Heaven
TTITLE3=The Forever People
EXTD=YEAR: 1996
EXTT0=
EXTT1=
EXTT2=
EXTT3=
PLAYORDER=
